<svg width="24" height="24" viewBox="0 0 24 24" fill="none" xmlns="http://www.w3.org/2000/svg">
<g clip-path="url(#clip0_1_121)">
<path d="M17.4864 -7.05128e-06C16.1252 0.0918678 14.6683 0.901868 13.7664 1.99499C12.977 2.95687 12.3152 4.36874 12.5664 5.83499C12.3414 5.76562 12.137 5.75812 11.8914 5.66999C11.222 5.43187 10.457 5.17499 9.5064 5.17499C7.61828 5.17499 5.68515 6.29812 4.4664 8.17499C2.69265 10.9012 3.0489 15.6994 5.7414 19.8C6.21578 20.52 6.7689 21.3056 7.4514 21.93C8.1339 22.5544 8.9589 23.0306 9.9264 23.04C10.7533 23.0494 11.3289 22.7737 11.8464 22.545C12.3639 22.3162 12.8458 22.1137 13.7514 22.11C13.757 22.11 13.7608 22.11 13.7664 22.11C14.6683 22.1025 15.1352 22.3012 15.6414 22.53C16.1477 22.7587 16.7177 23.0475 17.5464 23.04C18.5327 23.0325 19.3708 22.4925 20.0664 21.825C20.762 21.1575 21.3339 20.3381 21.8064 19.62C22.4833 18.5887 22.7552 18.0262 23.2764 16.875C23.3308 16.755 23.3327 16.6162 23.2802 16.4944C23.2295 16.3725 23.1302 16.2769 23.0064 16.23C21.3002 15.585 20.327 14.0756 20.1864 12.48C20.0458 10.8844 20.7208 9.24187 22.4214 8.30999C22.547 8.24249 22.6352 8.12437 22.6652 7.98562C22.6933 7.84687 22.6595 7.70062 22.5714 7.58999C21.3508 6.07312 19.6333 5.17499 17.9514 5.17499C16.8789 5.17499 16.0914 5.42812 15.4464 5.66999C15.3395 5.71124 15.2608 5.70749 15.1614 5.74499C15.8158 5.39999 16.3933 4.92187 16.8264 4.36499C17.6139 3.35437 18.2214 1.91624 17.9964 0.404993C17.9589 0.157493 17.7358 -0.0187571 17.4864 -7.05128e-06ZM16.9764 1.13999C16.9445 2.10937 16.6127 3.05812 16.0614 3.76499C15.4839 4.50749 14.5127 5.02124 13.5714 5.17499C13.5883 4.24312 13.9558 3.27749 14.5164 2.59499C15.1052 1.88249 16.0802 1.36874 16.9764 1.13999ZM9.5064 6.13499C9.9264 6.13499 10.9014 6.33562 11.5614 6.56999C12.2214 6.80437 12.917 7.07999 13.7364 7.07999C14.537 7.07999 15.1708 6.80249 15.7914 6.56999C16.412 6.33749 17.0308 6.13499 17.9514 6.13499C19.1533 6.13499 20.4527 6.75937 21.4764 7.84499C19.8377 9.00187 19.0708 10.8056 19.2264 12.555C19.382 14.3231 20.447 16.0012 22.1964 16.875C22.1939 16.8805 22.1914 16.8859 22.1889 16.8913C21.8143 17.7072 21.5646 18.2512 21.0114 19.095C20.552 19.7944 20.0064 20.5594 19.4064 21.135C18.8064 21.7106 18.1708 22.0744 17.5314 22.08C16.9145 22.0856 16.5639 21.9019 16.0314 21.66C15.4989 21.4181 14.8108 21.1406 13.7514 21.15C12.6939 21.1556 11.9964 21.4219 11.4564 21.66C10.9164 21.8981 10.562 22.0856 9.9414 22.08C9.28515 22.0744 8.67578 21.7556 8.0964 21.225C7.51703 20.6944 6.9939 19.9706 6.5364 19.275C4.0164 15.435 3.8139 10.9237 5.2614 8.69999C6.32265 7.06687 9.0864 6.13499 9.5064 6.13499Z" fill="black"/>
<path d="M9.5064 6.13499C9.9264 6.13499 10.9014 6.33562 11.5614 6.56999C12.2214 6.80437 12.917 7.07999 13.7364 7.07999C14.537 7.07999 15.1708 6.80249 15.7914 6.56999C16.412 6.33749 17.0308 6.13499 17.9514 6.13499C19.1533 6.13499 20.4527 6.75937 21.4764 7.84499C19.8377 9.00187 19.0708 10.8056 19.2264 12.555C19.382 14.3231 20.447 16.0012 22.1964 16.875L22.1889 16.8913C21.8143 17.7072 21.5646 18.2512 21.0114 19.095C20.552 19.7944 20.0064 20.5594 19.4064 21.135C18.8064 21.7106 18.1708 22.0744 17.5314 22.08C16.9145 22.0856 16.5639 21.9019 16.0314 21.66C15.4989 21.4181 14.8108 21.1406 13.7514 21.15C12.6939 21.1556 11.9964 21.4219 11.4564 21.66C10.9164 21.8981 10.562 22.0856 9.9414 22.08C9.28515 22.0744 8.67578 21.7556 8.0964 21.225C7.51703 20.6944 6.9939 19.9706 6.5364 19.275C4.0164 15.435 3.8139 10.9237 5.2614 8.69999C6.32265 7.06687 9.0864 6.13499 9.5064 6.13499Z" fill="black"/>
<path d="M16.9764 1.13999C16.9445 2.10937 16.6127 3.05812 16.0614 3.76499C15.4839 4.50749 14.5127 5.02124 13.5714 5.17499C13.5883 4.24312 13.9558 3.27749 14.5164 2.59499C15.1052 1.88249 16.0802 1.36874 16.9764 1.13999Z" fill="black"/>
</g>
<defs>
<clipPath id="clip0_1_121">
<rect width="24" height="24" fill="white"/>
</clipPath>
</defs>
</svg>
