<svg width="24" height="24" viewBox="0 0 24 24" fill="none" xmlns="http://www.w3.org/2000/svg">
<path d="M12.0002 2.0545C6.50737 2.0545 2.05469 6.50719 2.05469 12C2.05469 17.4928 6.50737 21.9455 12.0002 21.9455C17.493 21.9455 21.9457 17.4928 21.9457 12C21.9457 6.50719 17.493 2.0545 12.0002 2.0545ZM9.56562 16.1222H7.55165V9.64106H9.56562V16.1222ZM8.5462 8.84542C7.9101 8.84542 7.49882 8.39476 7.49882 7.8374C7.49882 7.26864 7.92254 6.83146 8.5721 6.83146C9.22167 6.83146 9.61949 7.26864 9.63192 7.8374C9.63192 8.39476 9.22167 8.84542 8.5462 8.84542ZM16.9211 16.1222H14.9072V12.5304C14.9072 11.6944 14.615 11.1267 13.8867 11.1267C13.3304 11.1267 12.9999 11.511 12.8539 11.8809C12.8 12.0124 12.7865 12.1989 12.7865 12.3844V16.1212H10.7715V11.7079C10.7715 10.8988 10.7456 10.2223 10.7187 9.64003H12.4685L12.5607 10.5403H12.6011C12.8663 10.1176 13.5158 9.49395 14.6026 9.49395C15.9276 9.49395 16.9211 10.3818 16.9211 12.2901V16.1222Z" fill="#1E1E1E"/>
</svg>
